<?xml version="1.0" encoding="UTF-8" standalone="no"?>
<!-- Created with Inkscape (http://www.inkscape.org/) -->

<svg
   width="811.48291"
   height="797.05219"
   viewBox="0 0 811.48291 797.05219"
   version="1.1"
   id="svg1"
   inkscape:version="1.3 (0e150ed6c4, 2023-07-21)"
   sodipodi:docname="somatic-vectorizado-positivo.svg"
   xmlns:inkscape="http://www.inkscape.org/namespaces/inkscape"
   xmlns:sodipodi="http://sodipodi.sourceforge.net/DTD/sodipodi-0.dtd"
   xmlns="http://www.w3.org/2000/svg"
   xmlns:svg="http://www.w3.org/2000/svg">
  <sodipodi:namedview
     id="namedview1"
     pagecolor="#ffffff"
     bordercolor="#666666"
     borderopacity="1.0"
     inkscape:showpageshadow="2"
     inkscape:pageopacity="0.0"
     inkscape:pagecheckerboard="0"
     inkscape:deskcolor="#d1d1d1"
     inkscape:document-units="px"
     inkscape:zoom="0.35648148"
     inkscape:cx="670.44156"
     inkscape:cy="540"
     inkscape:current-layer="layer1" />
  <defs
     id="defs1" />
  <g
     inkscape:label="Capa 1"
     inkscape:groupmode="layer"
     id="layer1"
     transform="translate(-1215.3373,-38.816685)">
    <path
       d="m 1621.0668,38.816684 c -224.0772,0.0067 -405.7252,178.429676 -405.7295,398.526046 0,105.6943 42.7489,207.05914 118.8374,281.79672 76.0884,74.73759 179.2861,116.72622 286.8921,116.72942 107.6101,0.003 210.8139,-41.98285 286.9076,-116.72112 76.0936,-74.73826 118.8438,-176.10665 118.8458,-281.80502 0,-105.69835 -42.7522,-207.06672 -118.8458,-281.80496 C 1831.8807,80.799524 1728.6769,38.813657 1621.0668,38.816684 Z m 0,74.800196 c 182.0297,-0.007 329.5996,144.93004 329.6059,323.72585 -0.01,178.7958 -147.5762,323.73309 -329.6059,323.72583 -182.0201,-0.006 -329.575,-144.93942 -329.5814,-323.72583 0.01,-178.78641 147.5613,-323.71982 329.5814,-323.72585 z m -100.575,125.98188 c -28.9643,1.3e-4 -52.4468,22.7589 -52.4555,50.83871 -0.01,28.08932 23.4814,50.86294 52.4555,50.86307 28.9741,-8e-5 52.4608,-22.77371 52.4556,-50.86307 -0.01,-28.07985 -23.4913,-50.83863 -52.4556,-50.83871 z m 201.174,0 c -28.9643,8e-5 -52.4469,22.75886 -52.4556,50.83871 -0.01,28.08936 23.4815,50.86299 52.4556,50.86307 28.9743,1.3e-4 52.4612,-22.77356 52.456,-50.86307 -0.01,-28.08 -23.4915,-50.83884 -52.456,-50.83871 z m -384.8792,183.95026 c 4.9146,161.96604 130.5593,290.66676 284.0596,290.96858 153.6808,-0.037 279.6043,-128.8123 284.5249,-290.96858 h -79.4062 c -13.6221,124.6949 -100.2769,217.84962 -202.84,218.05492 -102.5725,-0.19009 -189.2414,-93.34857 -202.8648,-218.05492 z m 134.5571,0.14678 c 3.3898,73.76414 36.5395,157.9896 149.7476,158.20011 109.8169,-0.2371 146.3331,-84.44399 149.7226,-158.20011 z"
       style="font-style:italic;font-weight:800;font-size:4.80531px;line-height:1.25;font-family:'Exo 2';-inkscape-font-specification:'Exo 2 Ultra-Bold Italic';text-align:center;text-anchor:middle;fill:#393e41;stroke-width:42.7175"
       id="path1"
       sodipodi:nodetypes="ccssscsccccccscscsscscsccccccccccc" />
  </g>
</svg>
